<?xml version="1.0" encoding="utf-8"?>
<!-- Generator: Adobe Illustrator 27.5.0, SVG Export Plug-In . SVG Version: 6.00 Build 0)  -->
<svg version="1.1" xmlns="http://www.w3.org/2000/svg" xmlns:xlink="http://www.w3.org/1999/xlink" x="0px" y="0px"
	 viewBox="0 0 500 500" style="enable-background:new 0 0 500 500;" xml:space="preserve">
<g id="BACKGROUND">
	<rect style="fill:#FFFFFF;" width="500" height="500"/>
</g>
<g id="OBJECTS">
	<path id="Background_19_" style="fill-rule:evenodd;clip-rule:evenodd;fill:#EEF5FF;" d="M260.198,65.52
		c-19.47,0-35.97,10.91-35.97,20.9c0,9.98,16.5,15.29,35.97,15.29c19.46,0,36.08-5.31,36.08-15.29
		C296.278,76.43,279.658,65.52,260.198,65.52z M386.149,116.05c-57.69-21.38-80.18-1.28-127.09,0c-10.58,0.29-21.18-0.66-31.93-1.87
		v2.81h-6.31v-3.54c-30.59-3.62-62.45-7.83-97.97,9.4c-71.66,34.75-99.55,141.16-57.69,213.38c33.96,58.59,92.75,75.77,158.63,64.35
		c38.15-6.61,45.31-28.54,91.92-49.13c46.6-20.59,97.24-4.34,129-65.29C472.129,233.51,461.368,143.93,386.149,116.05z
		 M365.048,370.81c-4.4-10.61-26.04-11.34-44.02-3.88s-26.97,19.77-25.57,29.52c1.64,11.37,23.13,15.29,41.52,8.92
		C359.629,397.52,369.448,381.42,365.048,370.81z"/>
	<g>
		<g id="XMLID_23_">
			<path id="XMLID_120_" style="fill:#307175;" d="M46.676,138.626c-0.333-0.65,21.509-1.964,28.471,0.407
				c3.364,1.145,10.336,3.999,13.951,6.033c11.072,6.229,16.078,12.287,24.578,21.729l39.184,43.526l-15.464,9.846
				c0,0-38.534-45.528-51.228-50.216C73.474,165.262,58.373,161.448,46.676,138.626z"/>
			<path id="XMLID_80_" style="fill:#307175;" d="M160.201,205.943c0,0-16.446-80.421-33.454-97.05
				C109.74,92.263,109.528,88.09,109.528,88.09s33.124,0.804,48.797,30.899c15.673,30.095,7.522,83.591,7.522,83.591l-6.678,4.008
				L160.201,205.943z"/>
			<path id="XMLID_79_" style="fill:#448C8C;" d="M142.525,216.872c0,0-7.407-7.709-13.422-16.863
				c-5.451-8.296-20.078-21.46-37.786-24.289c-6.161-0.984-12.214-2.561-17.988-4.923c-6.264-2.562-13.47-6.095-17.968-10.191
				c-7.714-7.025,15.283,24.084,23.532,35.139c3.281,4.396,7.427,8.096,12.25,10.71c3.67,1.989,12.369,5.688,16.754,5.356
				c10.962-0.831,25.758,10.612,25.758,10.612L142.525,216.872z"/>
			<path id="XMLID_78_" style="fill:#448C8C;" d="M166.364,202.301l-5.984-49.936c0,0-6.105-34.072,23.599-57.251
				c0.206-0.129,2.591-3.2,2.591-3.2l1.239,6.222c1.854,9.311,1.044,18.989-2.538,27.781c-0.125,0.306-0.253,0.614-0.385,0.924
				c0.516,0.825-19.326,49.554-7.725,68.705C178.02,195.391,166.364,202.301,166.364,202.301z"/>
			<path id="XMLID_77_" style="fill:#448C8C;" d="M116.876,164.904l-2.833-43.047c0,0,16.535,25.232,29.427,31.384
				c12.891,6.152,17.345,52.273,17.345,52.273l-9.215,5.766C151.6,211.279,117.598,182.608,116.876,164.904z"/>
			<g id="XMLID_76_">
				<path id="XMLID_216_" style="fill:#307175;" d="M137.832,220.865c-0.377,0.236-0.875,0.13-1.123-0.242
					c-0.134-0.201-13.602-20.099-33.354-22.738c-20.447-2.732-48.921-35.92-50.123-37.331c-0.295-0.347-0.254-0.867,0.093-1.162
					c0.347-0.294,0.867-0.254,1.162,0.093c0.29,0.341,29.265,34.118,49.087,36.766c10.734,1.434,19.547,7.74,25.051,12.778
					c5.942,5.44,9.316,10.468,9.457,10.68c0.252,0.379,0.149,0.89-0.229,1.143C137.846,220.857,137.839,220.861,137.832,220.865z"/>
			</g>
			<g id="XMLID_75_">
				<path id="XMLID_213_" style="fill:#307175;" d="M156.366,208.157c-0.345,0.216-0.805,0.148-1.072-0.174
					c-24.472-29.606-41.866-85.323-42.039-85.883c-0.134-0.435,0.109-0.896,0.544-1.031c0.435-0.134,0.896,0.109,1.031,0.544
					c0.172,0.556,17.471,55.967,41.734,85.319c0.29,0.351,0.241,0.87-0.11,1.161C156.426,208.117,156.396,208.138,156.366,208.157z"
					/>
			</g>
			<g id="XMLID_74_">
				<path id="XMLID_212_" style="fill:#307175;" d="M171.455,200.259c-0.088,0.055-0.188,0.094-0.296,0.113
					c-0.449,0.078-0.875-0.223-0.953-0.671c-0.054-0.311-5.403-31.284-5.387-45.27c0.02-17.17,20.147-61.005,21.003-62.862
					c0.19-0.413,0.68-0.594,1.094-0.403c0.413,0.191,0.594,0.68,0.403,1.094c-0.208,0.452-20.833,45.363-20.852,62.174
					c-0.016,13.845,5.309,44.676,5.363,44.986C171.889,199.759,171.73,200.086,171.455,200.259z"/>
			</g>
		</g>
		<g id="XMLID_00000054986199219893907660000015174484359493393338_">
			<path id="XMLID_00000000920487008200233710000016545844744518948270_" style="fill:#307175;" d="M434.3,400.348
				c0.678,0.27-0.091-21.598-3.113-28.303c-1.46-3.24-4.964-9.908-7.332-13.314c-7.254-10.43-13.76-14.836-23.968-22.4
				l-47.056-34.867l-8.331,16.331c0,0,48.986,34.029,54.861,46.219C405.236,376.204,410.468,390.875,434.3,400.348z"/>
			<path id="XMLID_00000156555227292553966700000001900266274942855354_" style="fill:#307175;" d="M356.491,293.741
				c0,0,81.62,8.723,99.792,24.072c18.171,15.349,22.346,15.162,22.346,15.162s-3.95-32.897-35.4-45.637s-83.928,0.462-83.928,0.462
				l-3.355,7.029L356.491,293.741z"/>
			<path id="XMLID_00000124124658958785132300000004496090690405656710_" style="fill:#448C8C;" d="M347.293,312.375
				c0,0,8.379,6.64,18.063,11.757c8.777,4.637,23.272,17.946,27.773,35.305c1.566,6.04,3.711,11.915,6.612,17.439
				c3.146,5.992,7.348,12.829,11.854,16.917c7.727,7.011-25.429-12.923-37.218-20.083c-4.689-2.848-8.766-6.623-11.826-11.176
				c-2.329-3.464-6.839-11.772-6.925-16.169c-0.215-10.992-13.014-24.632-13.014-24.632L347.293,312.375z"/>
			<path id="XMLID_00000016766223698142662350000012375357883703613846_" style="fill:#448C8C;" d="M359.53,287.259l50.279,1.207
				c0,0,34.498,2.837,54.747-28.937c0.109-0.218,2.939-2.883,2.939-2.883l-6.312-0.642c-9.445-0.96-19.002,0.767-27.414,5.169
				c-0.293,0.153-0.588,0.311-0.883,0.472c-0.871-0.436-47.491,23.951-67.659,14.225C365.3,274.998,359.53,287.259,359.53,287.259z"
				/>
			<path id="XMLID_00000115476213778252945130000009522037236521115796_" style="fill:#448C8C;" d="M401.464,332.965l43.121-1.274
				c0,0-26.69-14.061-34.04-26.308c-7.35-12.248-53.685-12.295-53.685-12.295l-4.863,9.721
				C351.997,302.81,383.772,333.93,401.464,332.965z"/>
			<g id="XMLID_00000131341391698389241920000003441811618944124850_">
				<path id="XMLID_00000019672811263440122030000013982936149450100664_" style="fill:#307175;" d="M343.764,317.427
					c-0.199,0.397-0.046,0.883,0.348,1.095c0.213,0.114,21.302,11.628,25.807,31.04c4.664,20.095,40.41,45.283,41.929,46.346
					c0.373,0.261,0.887,0.17,1.148-0.203c0.26-0.374,0.17-0.887-0.203-1.148c-0.367-0.257-36.747-25.888-41.268-45.368
					c-2.448-10.549-9.564-18.723-15.103-23.722c-5.98-5.398-11.307-8.278-11.531-8.398c-0.401-0.215-0.901-0.064-1.116,0.337
					C343.771,317.412,343.767,317.42,343.764,317.427z"/>
			</g>
			<g id="XMLID_00000042702586494973650470000014882752690461474234_">
				<path id="XMLID_00000025428282376423281710000008126423016020226234_" style="fill:#307175;" d="M354.652,297.768
					c-0.182,0.364-0.071,0.816,0.275,1.05c31.799,21.546,88.918,33.561,89.491,33.68c0.445,0.092,0.881-0.194,0.975-0.64
					c0.092-0.446-0.194-0.882-0.64-0.975c-0.57-0.118-57.374-12.069-88.902-33.43c-0.377-0.255-0.889-0.157-1.145,0.22
					C354.686,297.705,354.668,297.736,354.652,297.768z"/>
			</g>
			<g id="XMLID_00000170270978516221114510000009254730139624168120_">
				<path id="XMLID_00000080184424660570712840000008574479689617477521_" style="fill:#307175;" d="M361.079,281.997
					c-0.046,0.093-0.076,0.196-0.084,0.305c-0.035,0.454,0.305,0.85,0.759,0.885c0.315,0.024,31.656,2.403,45.577,1.057
					c17.09-1.653,58.812-25.858,60.58-26.887c0.393-0.229,0.527-0.734,0.297-1.127c-0.229-0.393-0.734-0.527-1.127-0.297
					c-0.43,0.25-43.176,25.053-59.909,26.671c-13.781,1.333-44.978-1.036-45.292-1.06
					C361.535,281.517,361.224,281.706,361.079,281.997z"/>
			</g>
		</g>
	</g>
	<g>
		<g>
			<g>
				<path style="fill:#FFFFFF;" d="M433.154,121.674v127.463c0,2.771-1.838,5.011-4.105,5.011H252.6
					c-2.274,0-4.112-2.239-4.112-5.011V121.674c0-2.763,1.838-5.002,4.112-5.002h176.448
					C431.316,116.672,433.154,118.912,433.154,121.674z"/>
			</g>
			<g>
				<path style="fill:#93BBE5;" d="M433.154,121.674v9.129H248.488v-9.129c0-2.763,1.838-5.002,4.112-5.002h176.448
					C431.316,116.672,433.154,118.912,433.154,121.674z"/>
			</g>
		</g>
	</g>
	<g>
		<path style="fill:#93BBE5;" d="M375.549,169.278V354.02c0,5.474-4.438,9.912-9.912,9.912H104.366
			c-5.474,0-9.912-4.438-9.912-9.912V169.278c0-5.474,4.438-9.912,9.912-9.912h261.271
			C371.111,159.366,375.549,163.804,375.549,169.278z"/>
		<rect x="105.808" y="172.071" style="fill:#A9CBF7;" width="258.386" height="178.316"/>
		<path style="fill:#93BBE5;" d="M390.16,363.919v0.013c0,10.565-8.566,19.131-19.131,19.131H98.974
			c-5.283,0-10.066-2.142-13.527-5.604c-3.462-3.462-5.604-8.245-5.604-13.527v-0.013H390.16z"/>
		<path style="fill:#78A6D1;" d="M84.673,376.639c3.504,3.941,8.612,6.425,14.301,6.425h272.053c5.689,0,10.797-2.484,14.301-6.425
			H84.673z"/>
		
			<ellipse transform="matrix(0.2298 -0.9732 0.9732 0.2298 20.6879 355.595)" style="fill:#184785;" cx="235.001" cy="164.727" rx="2.208" ry="2.208"/>
		<g>
			<path style="fill:#184785;" d="M114.722,363.886c-0.025-2.036-1.483-3.679-3.281-3.679l-14.148-0.002
				c-1.798,0-3.256,1.642-3.282,3.678L114.722,363.886z"/>
			<path style="fill:#184785;" d="M136.62,363.888c-0.025-2.036-1.484-3.679-3.281-3.679l-14.148-0.002
				c-1.798,0-3.256,1.642-3.282,3.678L136.62,363.888z"/>
			<path style="fill:#184785;" d="M158.518,363.891c-0.025-2.036-1.484-3.679-3.281-3.679l-14.148-0.002
				c-1.798,0-3.256,1.642-3.282,3.678L158.518,363.891z"/>
			<path style="fill:#184785;" d="M180.415,363.893c-0.025-2.036-1.483-3.679-3.281-3.679l-14.148-0.002
				c-1.798,0-3.256,1.642-3.282,3.678L180.415,363.893z"/>
			<path style="fill:#184785;" d="M283.197,363.906c-0.025-2.036-1.483-3.679-3.281-3.679l-14.148-0.002
				c-1.798,0-3.256,1.642-3.282,3.678L283.197,363.906z"/>
			<path style="fill:#184785;" d="M306.278,363.908c-0.025-2.036-1.484-3.679-3.281-3.679l-14.148-0.002
				c-1.798,0-3.256,1.642-3.282,3.678L306.278,363.908z"/>
			<path style="fill:#184785;" d="M329.359,363.911c-0.025-2.036-1.484-3.679-3.281-3.679l-14.148-0.002
				c-1.798,0-3.256,1.642-3.282,3.678L329.359,363.911z"/>
			<path style="fill:#184785;" d="M352.441,363.914c-0.025-2.036-1.483-3.679-3.281-3.679l-14.148-0.002
				c-1.798,0-3.256,1.642-3.282,3.678L352.441,363.914z"/>
			<path style="fill:#184785;" d="M375.522,363.917c-0.025-2.036-1.484-3.679-3.281-3.679l-14.148-0.002
				c-1.798,0-3.256,1.642-3.282,3.678L375.522,363.917z"/>
			<path style="fill:#184785;" d="M260.313,363.899l0-0.399c0-1.85-1.407-3.35-3.143-3.351l-71.44-0.009
				c-1.736,0-3.144,1.5-3.144,3.35l0,0.399L260.313,363.899z"/>
		</g>
	</g>
	<g>
		<path style="fill:#184785;" d="M135.861,333.626v-9.211c0-1.971,1.598-3.57,3.57-3.57h85.317c1.972,0,3.57,1.598,3.57,3.57v9.211
			c0,1.972-1.598,3.57-3.57,3.57H139.43C137.459,337.196,135.861,335.598,135.861,333.626z"/>
		<g>
			<path style="fill:#EEF5FF;" d="M135.861,291.415v-9.211c0-1.972,1.598-3.57,3.57-3.57h85.317c1.972,0,3.57,1.598,3.57,3.57v9.211
				c0,1.971-1.598,3.57-3.57,3.57H139.43C137.459,294.985,135.861,293.386,135.861,291.415z"/>
			<path style="fill:#184785;" d="M156.652,278.634H139.43c-1.972,0-3.57,1.598-3.57,3.57v9.211c0,1.971,1.598,3.57,3.57,3.57
				h17.221V278.634z"/>
			<path style="fill:#EEF5FF;" d="M147.369,286.193c0.592-0.371,0.987-1.028,0.987-1.779c0-1.16-0.94-2.1-2.1-2.1
				c-1.16,0-2.1,0.94-2.1,2.1c0,0.751,0.395,1.407,0.987,1.779c-1.386,0.601-2.44,2.296-2.667,4.382h7.56
				C149.809,288.488,148.755,286.794,147.369,286.193z"/>
		</g>
		<g>
			<g>
				<path style="fill:#EEF5FF;" d="M135.861,312.836v-9.211c0-1.971,1.598-3.57,3.57-3.57h85.317c1.972,0,3.57,1.598,3.57,3.57
					v9.211c0,1.971-1.598,3.57-3.57,3.57H139.43C137.459,316.405,135.861,314.807,135.861,312.836z"/>
				<path style="fill:#184785;" d="M156.652,300.055H139.43c-1.972,0-3.57,1.598-3.57,3.57v9.211c0,1.971,1.598,3.57,3.57,3.57
					h17.221V300.055z"/>
			</g>
			<g>
				<g>
					<path style="fill:#5B5A5A;" d="M164.999,308.688c0,1.044-0.846,1.89-1.89,1.89c-1.044,0-1.89-0.846-1.89-1.89
						s0.846-1.89,1.89-1.89C164.153,306.797,164.999,307.644,164.999,308.688z"/>
					<path style="fill:#5B5A5A;" d="M172.061,308.688c0,1.044-0.846,1.89-1.89,1.89c-1.044,0-1.89-0.846-1.89-1.89
						s0.846-1.89,1.89-1.89C171.215,306.797,172.061,307.644,172.061,308.688z"/>
					<path style="fill:#5B5A5A;" d="M179.122,308.688c0,1.044-0.846,1.89-1.89,1.89c-1.044,0-1.89-0.846-1.89-1.89
						s0.846-1.89,1.89-1.89C178.276,306.797,179.122,307.644,179.122,308.688z"/>
					<path style="fill:#5B5A5A;" d="M186.184,308.688c0,1.044-0.846,1.89-1.89,1.89c-1.044,0-1.89-0.846-1.89-1.89
						s0.846-1.89,1.89-1.89C185.338,306.797,186.184,307.644,186.184,308.688z"/>
					<path style="fill:#5B5A5A;" d="M193.245,308.688c0,1.044-0.846,1.89-1.89,1.89c-1.044,0-1.89-0.846-1.89-1.89
						s0.846-1.89,1.89-1.89C192.399,306.797,193.245,307.644,193.245,308.688z"/>
					<path style="fill:#5B5A5A;" d="M200.307,308.688c0,1.044-0.846,1.89-1.89,1.89c-1.044,0-1.89-0.846-1.89-1.89
						s0.846-1.89,1.89-1.89C199.461,306.797,200.307,307.644,200.307,308.688z"/>
					<path style="fill:#5B5A5A;" d="M207.369,308.688c0,1.044-0.846,1.89-1.89,1.89c-1.044,0-1.89-0.846-1.89-1.89
						s0.846-1.89,1.89-1.89C206.522,306.797,207.369,307.644,207.369,308.688z"/>
				</g>
				<g>
					<path style="fill:#EEF5FF;" d="M148.778,307.237h-4.965c-0.521,0-0.943,0.422-0.943,0.943v3.636
						c0,0.521,0.422,0.943,0.943,0.943h4.965c0.521,0,0.943-0.422,0.943-0.943v-3.636
						C149.721,307.659,149.299,307.237,148.778,307.237z M146.777,309.986v1.053c0,0.265-0.217,0.481-0.481,0.481
						s-0.481-0.216-0.481-0.481v-1.053c-0.255-0.16-0.426-0.444-0.426-0.767c0-0.501,0.406-0.907,0.907-0.907
						c0.501,0,0.907,0.406,0.907,0.907C147.202,309.542,147.032,309.825,146.777,309.986z"/>
					<path style="fill:#EEF5FF;" d="M144.6,306.523v-0.514c0-0.935,0.761-1.696,1.696-1.696c0.935,0,1.696,0.761,1.696,1.696v0.514
						h0.942v-0.514c0-1.457-1.181-2.638-2.638-2.638l0,0c-1.457,0-2.638,1.181-2.638,2.638v0.514H144.6z"/>
				</g>
			</g>
		</g>
	</g>
	<g>
		<path style="fill:#F89D13;" d="M139.147,261.387l-32.416-51.192c-2.33-3.68-7.7-3.68-10.03,0l-32.416,51.192
			c-2.503,3.952,0.337,9.112,5.015,9.112h64.832C138.81,270.499,141.649,265.34,139.147,261.387z"/>
		<path style="fill:#FEFEFE;" d="M128.054,262.025H75.377c-1.111,0-1.785-1.225-1.191-2.163l26.339-41.595
			c0.553-0.874,1.828-0.874,2.381,0l26.339,41.595C129.839,260.8,129.165,262.025,128.054,262.025z"/>
		<g>
			<path style="fill:#F89D13;" d="M104.938,248.317h-6.446l-0.996-18.478h8.438L104.938,248.317z M97.575,255.154
				c0-1.185,0.352-2.106,1.055-2.764c0.703-0.657,1.725-0.986,3.067-0.986c1.328,0,2.334,0.329,3.018,0.986
				c0.684,0.658,1.025,1.579,1.025,2.764c0,1.172-0.355,2.087-1.064,2.744c-0.71,0.657-1.703,0.986-2.979,0.986
				c-1.289,0-2.298-0.329-3.027-0.986C97.939,257.241,97.575,256.326,97.575,255.154z"/>
		</g>
	</g>
	<g>
		<g>
			<path id="XMLID_10502_" style="fill:#93BBE5;" d="M36.714,232.786c0.562,1.313-0.046,2.83-1.358,3.391
				c-1.313,0.562-2.83-0.046-3.391-1.359c-0.561-1.312,0.046-2.83,1.359-3.391C34.635,230.866,36.153,231.474,36.714,232.786z"/>
			<path id="XMLID_10483_" style="fill:#93BBE5;" d="M86.792,113.679l-2.18,0.933l-0.346,0.853l0.932,2.179
				c0.292,0.682-0.02,1.465-0.702,1.756c-0.672,0.288-1.457-0.025-1.749-0.707l-0.932-2.179l-0.821-0.354l-2.203,0.943
				c-0.682,0.292-1.465-0.022-1.755-0.7c-0.29-0.677,0.022-1.464,0.704-1.756l2.203-0.943l0.31-0.84l-0.93-2.173
				c-0.292-0.682,0.024-1.466,0.696-1.754c0.682-0.292,1.463,0.023,1.755,0.705l0.93,2.173l0.857,0.341l2.18-0.933
				c0.672-0.288,1.459,0.029,1.749,0.706C87.781,112.607,87.465,113.391,86.792,113.679z"/>
			<g id="XMLID_10382_">
				<path id="XMLID_10475_" style="fill:#93BBE5;" d="M42.173,246.602c0.383,1.862,2.21,3.066,4.07,2.683
					c1.862-0.383,3.064-2.21,2.681-4.072c-0.383-1.86-2.209-3.066-4.07-2.683C42.994,242.913,41.79,244.742,42.173,246.602z
					 M43.541,246.32c-0.228-1.107,0.487-2.195,1.594-2.422c1.109-0.228,2.193,0.489,2.421,1.597
					c0.228,1.109-0.486,2.193-1.595,2.421C44.854,248.143,43.769,247.429,43.541,246.32z"/>
			</g>
			<path id="XMLID_00000043458039742685486250000005300337993380298418_" style="fill:#93BBE5;" d="M293.355,426.344
				c0.562,1.313-0.046,2.83-1.358,3.391c-1.313,0.562-2.83-0.046-3.391-1.359c-0.561-1.312,0.046-2.83,1.359-3.391
				C291.277,424.423,292.794,425.031,293.355,426.344z"/>
			<g id="XMLID_00000010995875539202958900000009864097140625562297_">
				<path id="XMLID_00000144313898204436816260000018142088173858543007_" style="fill:#93BBE5;" d="M248.245,419.701
					c0.383,1.862,2.21,3.066,4.07,2.683c1.862-0.383,3.064-2.21,2.681-4.072c-0.383-1.86-2.209-3.066-4.07-2.683
					C249.066,416.012,247.863,417.841,248.245,419.701z M249.613,419.419c-0.228-1.107,0.487-2.195,1.594-2.422
					c1.109-0.228,2.193,0.489,2.421,1.597c0.228,1.109-0.486,2.193-1.595,2.421C250.927,421.242,249.841,420.528,249.613,419.419z"
					/>
			</g>
		</g>
		<g id="XMLID_10351_">
			<g id="XMLID_10444_">
				<path id="XMLID_10447_" style="fill:#93BBE5;" d="M54.97,211.102c-2.499,1.069-5.391-0.096-6.458-2.59
					c-1.064-2.487,0.094-5.373,2.593-6.442c2.486-1.064,5.373,0.092,6.437,2.579C58.61,207.142,57.456,210.038,54.97,211.102z
					 M51.586,203.193c-1.875,0.802-2.747,2.972-1.948,4.838c0.803,1.878,2.976,2.748,4.851,1.946c1.866-0.798,2.733-2.97,1.93-4.848
					C55.62,203.264,53.452,202.395,51.586,203.193z"/>
			</g>
			<g id="XMLID_10417_">
				<path id="XMLID_10440_" style="fill:#93BBE5;" d="M62.148,221.335l-4.743,2.029c-0.305,0.13-0.665-0.01-0.801-0.326
					l-1.716-4.011c-1.092,0.168-2.238,0.176-3.415,0.031l-1.625,4.064c-0.117,0.3-0.496,0.462-0.794,0.34l-4.788-1.918
					c-0.31-0.126-0.466-0.472-0.339-0.793l1.616-4.065c-0.904-0.673-1.731-1.466-2.444-2.378l-4.008,1.715
					c-0.309,0.132-0.664-0.011-0.798-0.322l-2.03-4.745c-0.132-0.31,0.009-0.667,0.318-0.799l4.008-1.715
					c-0.167-1.143-0.172-2.294-0.037-3.42l-4.052-1.629c-0.317-0.123-0.463-0.484-0.338-0.796l1.922-4.777
					c0.129-0.316,0.483-0.467,0.794-0.34l4.06,1.628c0.695-0.94,1.49-1.757,2.378-2.454l-1.715-4.007
					c-0.132-0.309,0.015-0.667,0.32-0.798l4.743-2.029c0.311-0.133,0.667,0.009,0.799,0.319l1.715,4.007
					c1.123-0.163,2.265-0.175,3.428-0.03l1.613-4.056c0.129-0.316,0.485-0.468,0.803-0.343l4.777,1.911
					c0.144,0.062,0.277,0.176,0.339,0.323c0.065,0.151,0.068,0.315,0.008,0.47l-1.633,4.061c0.921,0.674,1.752,1.472,2.445,2.39
					l4.02-1.72c0.314-0.134,0.67,0.01,0.803,0.32l2.03,4.745c0.133,0.311-0.009,0.667-0.323,0.802l-4.02,1.72
					c0.187,1.137,0.187,2.284,0.036,3.408l4.07,1.633c0.309,0.124,0.46,0.483,0.339,0.793l-1.919,4.788
					c-0.119,0.301-0.496,0.462-0.803,0.343l-4.049-1.636c-0.715,0.955-1.513,1.778-2.391,2.454l1.716,4.011
					C62.602,220.847,62.459,221.202,62.148,221.335z M57.493,222.001l3.62-1.549l-1.669-3.9c-0.113-0.265-0.03-0.571,0.203-0.734
					c1.044-0.738,1.974-1.689,2.764-2.845c0.163-0.232,0.455-0.325,0.736-0.216l3.94,1.578l1.461-3.652l-3.952-1.589
					c-0.268-0.103-0.416-0.387-0.372-0.669c0.227-1.295,0.222-2.621-0.033-3.949c-0.057-0.281,0.098-0.557,0.361-0.669l3.892-1.665
					l-1.554-3.631l-3.892,1.665c-0.263,0.112-0.571,0.03-0.735-0.205c-0.781-1.094-1.738-2.023-2.837-2.761
					c-0.235-0.164-0.337-0.466-0.227-0.731l1.582-3.949l-3.645-1.454l-1.577,3.945c-0.12,0.268-0.383,0.427-0.669,0.374
					c-1.35-0.223-2.688-0.209-3.967,0.033c-0.28,0.053-0.558-0.097-0.672-0.363l-1.663-3.887l-3.62,1.549l1.663,3.887
					c0.114,0.266,0.027,0.572-0.21,0.74c-1.057,0.758-1.986,1.713-2.754,2.843c-0.16,0.244-0.465,0.328-0.736,0.228l-3.94-1.584
					l-1.474,3.644l3.942,1.585c0.263,0.105,0.418,0.384,0.376,0.665c-0.221,1.305-0.206,2.645,0.038,3.96
					c0.054,0.287-0.099,0.562-0.359,0.673l-3.885,1.662l1.554,3.631L43.068,213c0.26-0.111,0.564-0.032,0.731,0.196
					c0.79,1.101,1.749,2.023,2.835,2.756c0.234,0.167,0.328,0.471,0.222,0.733l-1.573,3.951l3.659,1.464l1.577-3.938
					c0.11-0.276,0.384-0.426,0.664-0.384c1.382,0.226,2.714,0.209,3.962-0.033c0.284-0.058,0.565,0.091,0.679,0.356L57.493,222.001z
					"/>
			</g>
		</g>
		<g>
			<path style="fill:#93BBE5;" d="M59.59,112.206h3.512v3.524c0,0.759,0.616,1.369,1.375,1.369c0.762,0,1.372-0.61,1.372-1.369
				v-3.524h3.515c0.759,0,1.372-0.603,1.372-1.362c0-0.759-0.613-1.381-1.372-1.381h-3.515v-3.509c0-0.759-0.61-1.378-1.372-1.378
				c-0.759,0-1.375,0.619-1.375,1.378v3.509H59.59c-0.759,0-1.375,0.622-1.375,1.381C58.215,111.603,58.831,112.206,59.59,112.206z"
				/>
			<path style="fill:#93BBE5;" d="M292.651,104.569h3.512v3.524c0,0.759,0.616,1.369,1.375,1.369c0.762,0,1.372-0.61,1.372-1.369
				v-3.524h3.515c0.759,0,1.372-0.603,1.372-1.362c0-0.759-0.613-1.381-1.372-1.381h-3.515v-3.509c0-0.759-0.61-1.378-1.372-1.378
				c-0.759,0-1.375,0.619-1.375,1.378v3.509h-3.512c-0.759,0-1.375,0.622-1.375,1.381
				C291.276,103.966,291.892,104.569,292.651,104.569z"/>
			<g>
				<path style="fill:#93BBE5;" d="M66.063,303.52c0-3.381-2.753-6.134-6.131-6.134c-3.381,0-6.131,2.753-6.131,6.134
					c0,3.378,2.75,6.134,6.131,6.134C63.311,309.654,66.063,306.898,66.063,303.52z M63.712,303.52c0,2.084-1.695,3.782-3.779,3.782
					c-2.087,0-3.779-1.698-3.779-3.782c0-2.087,1.692-3.779,3.779-3.779C62.017,299.741,63.712,301.433,63.712,303.52z"/>
			</g>
			<g>
				<path style="fill:#93BBE5;" d="M280.248,402.054c0-3.381-2.753-6.134-6.131-6.134c-3.381,0-6.131,2.753-6.131,6.134
					c0,3.378,2.75,6.134,6.131,6.134C277.496,408.188,280.248,405.432,280.248,402.054z M277.897,402.054
					c0,2.084-1.695,3.782-3.779,3.782c-2.087,0-3.779-1.698-3.779-3.782c0-2.087,1.692-3.779,3.779-3.779
					C276.202,398.275,277.897,399.967,277.897,402.054z"/>
			</g>
			<g>
				<path style="fill:#93BBE5;" d="M338.828,71.175c0-3.381-2.753-6.134-6.131-6.134c-3.381,0-6.131,2.753-6.131,6.134
					c0,3.378,2.75,6.134,6.131,6.134C336.076,77.309,338.828,74.553,338.828,71.175z M336.477,71.175
					c0,2.084-1.695,3.782-3.779,3.782c-2.087,0-3.779-1.698-3.779-3.782c0-2.087,1.692-3.779,3.779-3.779
					C334.782,67.396,336.477,69.088,336.477,71.175z"/>
			</g>
			<g>
				<path style="fill:#93BBE5;" d="M455.92,149.235c0.859,0,1.546-0.7,1.546-1.552c0-0.862-0.687-1.54-1.546-1.54h-15.456
					c-0.855,0-1.549,0.678-1.549,1.54c0,0.852,0.693,1.552,1.549,1.552H455.92z"/>
			</g>
			<g>
				<path style="fill:#93BBE5;" d="M433.839,149.235c0.849,0,1.546-0.7,1.546-1.552c0-0.862-0.697-1.54-1.546-1.54h-2.837
					c-0.856,0-1.543,0.678-1.543,1.54c0,0.852,0.687,1.552,1.543,1.552H433.839z"/>
			</g>
			<g>
				<path style="fill:#93BBE5;" d="M133.872,397.602c0.859,0,1.546-0.7,1.546-1.552c0-0.862-0.687-1.54-1.546-1.54h-15.455
					c-0.856,0-1.549,0.678-1.549,1.54c0,0.852,0.693,1.552,1.549,1.552H133.872z"/>
			</g>
			<g>
				<path style="fill:#93BBE5;" d="M106.095,397.602c0.849,0,1.546-0.7,1.546-1.552c0-0.862-0.697-1.54-1.546-1.54h-2.837
					c-0.856,0-1.543,0.678-1.543,1.54c0,0.852,0.687,1.552,1.543,1.552H106.095z"/>
			</g>
		</g>
		<g id="XMLID_00000087388991763064253920000017977395913114258566_">
			<g id="XMLID_00000008117211210856771470000016714332048777245862_">
				<path id="XMLID_00000000924619052940604170000001265832889933246856_" style="fill:#93BBE5;" d="M370.132,92.604
					c-2.499,1.069-5.391-0.096-6.458-2.59c-1.064-2.487,0.094-5.373,2.593-6.442c2.486-1.064,5.373,0.092,6.437,2.579
					C373.771,88.644,372.618,91.54,370.132,92.604z M366.748,84.695c-1.875,0.802-2.747,2.972-1.948,4.838
					c0.803,1.878,2.976,2.748,4.851,1.946c1.866-0.798,2.733-2.97,1.93-4.848C370.782,84.766,368.613,83.897,366.748,84.695z"/>
			</g>
			<g id="XMLID_00000106136758301237819310000003189688286815709077_">
				<path id="XMLID_00000049192536485125221580000007336375445496879785_" style="fill:#93BBE5;" d="M377.309,102.837l-4.743,2.029
					c-0.305,0.13-0.665-0.01-0.801-0.326l-1.716-4.011c-1.092,0.168-2.238,0.176-3.415,0.031l-1.625,4.064
					c-0.117,0.3-0.496,0.462-0.794,0.34l-4.788-1.918c-0.31-0.126-0.466-0.472-0.339-0.793l1.616-4.065
					c-0.904-0.673-1.731-1.466-2.444-2.378l-4.008,1.715c-0.309,0.132-0.664-0.011-0.798-0.322l-2.03-4.745
					c-0.132-0.31,0.009-0.667,0.318-0.799l4.008-1.715c-0.167-1.143-0.172-2.294-0.037-3.42l-4.052-1.629
					c-0.317-0.123-0.463-0.484-0.338-0.796l1.922-4.777c0.129-0.316,0.483-0.467,0.794-0.34l4.06,1.628
					c0.695-0.94,1.49-1.757,2.378-2.454l-1.715-4.007c-0.132-0.309,0.015-0.667,0.32-0.798l4.743-2.029
					c0.311-0.133,0.667,0.009,0.799,0.319l1.715,4.007c1.123-0.163,2.265-0.175,3.428-0.03l1.613-4.056
					c0.129-0.316,0.485-0.468,0.803-0.343l4.777,1.911c0.144,0.062,0.277,0.176,0.339,0.323c0.065,0.151,0.068,0.315,0.008,0.47
					l-1.633,4.061c0.921,0.674,1.752,1.472,2.445,2.39l4.02-1.72c0.314-0.134,0.67,0.01,0.803,0.32l2.03,4.745
					c0.133,0.311-0.009,0.667-0.323,0.802l-4.02,1.72c0.187,1.137,0.187,2.284,0.036,3.408l4.07,1.632
					c0.309,0.124,0.46,0.483,0.339,0.793l-1.919,4.788c-0.119,0.301-0.496,0.462-0.803,0.343l-4.049-1.636
					c-0.715,0.955-1.513,1.778-2.391,2.454l1.716,4.011C377.763,102.349,377.621,102.704,377.309,102.837z M372.654,103.503
					l3.62-1.549l-1.669-3.9c-0.113-0.265-0.03-0.571,0.203-0.734c1.044-0.738,1.974-1.689,2.764-2.845
					c0.163-0.232,0.455-0.325,0.736-0.216l3.94,1.578l1.461-3.652l-3.952-1.589c-0.268-0.103-0.416-0.387-0.372-0.669
					c0.227-1.295,0.222-2.621-0.033-3.949c-0.057-0.281,0.098-0.557,0.361-0.669l3.892-1.665l-1.554-3.631l-3.892,1.665
					c-0.263,0.112-0.571,0.03-0.735-0.205c-0.781-1.094-1.738-2.023-2.837-2.761c-0.235-0.164-0.337-0.466-0.227-0.731l1.582-3.949
					l-3.645-1.454l-1.577,3.945c-0.12,0.268-0.383,0.427-0.669,0.373c-1.35-0.223-2.688-0.209-3.967,0.033
					c-0.28,0.053-0.559-0.097-0.672-0.363l-1.663-3.887l-3.62,1.549l1.663,3.887c0.114,0.266,0.027,0.572-0.21,0.74
					c-1.057,0.758-1.986,1.713-2.754,2.843c-0.16,0.244-0.465,0.328-0.736,0.228l-3.94-1.584l-1.474,3.644l3.942,1.585
					c0.263,0.105,0.418,0.384,0.376,0.665c-0.221,1.305-0.206,2.645,0.038,3.96c0.054,0.287-0.099,0.562-0.359,0.673l-3.885,1.662
					l1.554,3.631l3.885-1.662c0.26-0.111,0.564-0.032,0.731,0.196c0.79,1.101,1.749,2.023,2.835,2.756
					c0.234,0.167,0.328,0.471,0.222,0.733l-1.573,3.95l3.659,1.464l1.577-3.938c0.11-0.276,0.384-0.426,0.664-0.384
					c1.382,0.226,2.714,0.209,3.962-0.033c0.284-0.058,0.565,0.091,0.679,0.356L372.654,103.503z"/>
			</g>
		</g>
	</g>
	<g>
		<path style="fill:#78A6D1;" d="M232.437,126.85V133c0,4.549-3.608,8.269-8.113,8.453c0.693,0.158,1.211,0.778,1.211,1.519
			c0,0.714-0.48,1.314-1.135,1.499c6.135-0.225,11.057-5.282,11.057-11.471v-1.998h2.095L232.437,126.85z"/>
		<g>
			<path style="fill:#184785;" d="M285.582,221.937l-126.343,45.202c-4.621,1.653-9.707-0.753-11.36-5.374l-27.411-76.615
				c-1.653-4.621,0.753-9.707,5.373-11.36l126.343-45.202c4.621-1.653,9.707,0.753,11.36,5.374l27.411,76.615
				C292.608,215.198,290.203,220.284,285.582,221.937z"/>
			<path style="fill:#D8E2E5;" d="M151.886,226.469l-1.659-0.631c-0.15-0.056-0.317-0.135-0.374-0.294
				c-0.088-0.247,0.018-0.534,0.274-0.626c0.141-0.051,0.284-0.012,0.413,0.041l1.235,0.474l-0.461-1.288
				c-0.101-0.282-0.034-0.485,0.283-0.599c0.318-0.114,0.498,0.001,0.599,0.283l0.461,1.288l0.654-1.15
				c0.065-0.123,0.152-0.243,0.293-0.294c0.256-0.092,0.52,0.063,0.609,0.31c0.057,0.159-0.023,0.327-0.103,0.465l-0.882,1.54
				l1.51,0.575c0.194,0.07,0.451,0.147,0.527,0.359c0.088,0.247-0.021,0.525-0.277,0.617c-0.185,0.066-0.401-0.036-0.574-0.103
				l-1.074-0.412l0.455,1.271c0.101,0.282,0.034,0.485-0.283,0.599c-0.318,0.114-0.498-0.001-0.599-0.283l-0.455-1.271l-0.568,1
				c-0.091,0.162-0.193,0.378-0.379,0.444c-0.256,0.092-0.517-0.054-0.606-0.301c-0.076-0.212,0.074-0.434,0.179-0.612
				L151.886,226.469z M158.24,224.196l-1.659-0.631c-0.149-0.056-0.317-0.135-0.374-0.294c-0.088-0.247,0.018-0.534,0.274-0.626
				c0.141-0.051,0.284-0.012,0.413,0.041l1.235,0.474l-0.461-1.288c-0.101-0.282-0.034-0.486,0.283-0.599
				c0.318-0.114,0.498,0.001,0.599,0.283l0.461,1.288l0.654-1.15c0.065-0.123,0.152-0.243,0.293-0.294
				c0.256-0.092,0.52,0.063,0.609,0.31c0.057,0.159-0.023,0.327-0.103,0.465l-0.882,1.54l1.51,0.575
				c0.194,0.07,0.451,0.147,0.527,0.359c0.088,0.247-0.021,0.525-0.277,0.617c-0.185,0.066-0.401-0.036-0.575-0.103l-1.073-0.412
				l0.455,1.271c0.101,0.282,0.034,0.486-0.283,0.599c-0.318,0.114-0.498-0.001-0.599-0.283l-0.455-1.271l-0.568,1
				c-0.091,0.162-0.193,0.378-0.379,0.444c-0.256,0.092-0.517-0.054-0.606-0.301c-0.076-0.212,0.074-0.434,0.179-0.612
				L158.24,224.196z M164.594,221.923l-1.659-0.631c-0.149-0.056-0.317-0.135-0.374-0.294c-0.088-0.247,0.018-0.534,0.274-0.626
				c0.141-0.05,0.284-0.012,0.413,0.041l1.235,0.474l-0.461-1.288c-0.101-0.282-0.034-0.486,0.283-0.599
				c0.318-0.114,0.498,0.001,0.599,0.283l0.461,1.288l0.654-1.15c0.065-0.123,0.152-0.243,0.293-0.294
				c0.256-0.092,0.52,0.063,0.609,0.31c0.057,0.159-0.023,0.327-0.102,0.465l-0.883,1.54l1.51,0.575
				c0.194,0.07,0.451,0.147,0.527,0.359c0.088,0.247-0.021,0.525-0.277,0.617c-0.185,0.066-0.401-0.036-0.574-0.103l-1.074-0.412
				l0.455,1.271c0.101,0.282,0.034,0.486-0.283,0.599c-0.318,0.114-0.498-0.001-0.599-0.283l-0.455-1.271l-0.568,1
				c-0.091,0.162-0.193,0.378-0.379,0.444c-0.256,0.092-0.517-0.054-0.606-0.301c-0.076-0.212,0.074-0.434,0.179-0.612
				L164.594,221.923z M170.948,219.649l-1.659-0.631c-0.15-0.056-0.317-0.135-0.374-0.294c-0.088-0.247,0.018-0.534,0.274-0.626
				c0.141-0.051,0.284-0.012,0.413,0.041l1.235,0.474l-0.461-1.288c-0.101-0.282-0.034-0.485,0.283-0.599
				c0.318-0.114,0.498,0.001,0.599,0.283l0.461,1.288l0.654-1.15c0.065-0.123,0.152-0.243,0.293-0.294
				c0.256-0.092,0.52,0.063,0.609,0.31c0.057,0.159-0.023,0.327-0.103,0.465l-0.882,1.54l1.51,0.575
				c0.194,0.07,0.451,0.147,0.527,0.359c0.088,0.247-0.021,0.525-0.277,0.617c-0.185,0.066-0.401-0.036-0.574-0.103l-1.074-0.412
				l0.455,1.271c0.101,0.282,0.034,0.485-0.283,0.599c-0.318,0.114-0.498-0.001-0.599-0.283l-0.455-1.271l-0.568,1
				c-0.091,0.162-0.193,0.378-0.379,0.444c-0.256,0.092-0.517-0.054-0.606-0.301c-0.076-0.212,0.074-0.434,0.179-0.612
				L170.948,219.649z M183.656,215.103l-1.659-0.631c-0.149-0.056-0.317-0.135-0.374-0.294c-0.088-0.247,0.018-0.534,0.274-0.626
				c0.141-0.051,0.284-0.012,0.413,0.041l1.235,0.474l-0.461-1.288c-0.101-0.282-0.034-0.486,0.284-0.599
				c0.318-0.114,0.498,0.001,0.599,0.283l0.461,1.288l0.654-1.15c0.066-0.123,0.152-0.243,0.293-0.294
				c0.256-0.092,0.52,0.063,0.609,0.31c0.057,0.159-0.023,0.327-0.103,0.465l-0.883,1.54l1.51,0.575
				c0.194,0.07,0.451,0.147,0.527,0.359c0.088,0.247-0.021,0.525-0.277,0.617c-0.186,0.066-0.401-0.036-0.575-0.103l-1.073-0.413
				l0.455,1.271c0.101,0.282,0.034,0.486-0.283,0.599c-0.318,0.114-0.498-0.001-0.599-0.283l-0.455-1.271l-0.568,1
				c-0.091,0.162-0.194,0.378-0.379,0.444c-0.256,0.092-0.517-0.054-0.605-0.301c-0.076-0.212,0.074-0.435,0.18-0.612
				L183.656,215.103z M190.01,212.83l-1.659-0.631c-0.15-0.056-0.317-0.135-0.374-0.294c-0.088-0.247,0.018-0.534,0.274-0.626
				c0.141-0.051,0.284-0.012,0.413,0.041l1.235,0.474l-0.461-1.288c-0.101-0.282-0.034-0.486,0.283-0.599
				c0.318-0.114,0.498,0.001,0.599,0.283l0.461,1.288l0.654-1.15c0.066-0.123,0.152-0.243,0.293-0.294
				c0.256-0.092,0.52,0.063,0.609,0.31c0.057,0.159-0.023,0.327-0.103,0.465l-0.882,1.54l1.51,0.575
				c0.194,0.07,0.451,0.147,0.527,0.359c0.088,0.247-0.021,0.525-0.277,0.617c-0.185,0.066-0.401-0.036-0.575-0.103l-1.073-0.413
				l0.455,1.271c0.101,0.282,0.034,0.486-0.284,0.599c-0.318,0.114-0.498-0.001-0.599-0.283l-0.455-1.271l-0.568,1
				c-0.091,0.162-0.193,0.378-0.379,0.444c-0.256,0.092-0.517-0.054-0.606-0.301c-0.076-0.212,0.073-0.434,0.18-0.612L190.01,212.83
				z M196.365,210.556l-1.659-0.631c-0.15-0.056-0.317-0.135-0.374-0.294c-0.088-0.247,0.018-0.534,0.274-0.626
				c0.141-0.05,0.284-0.012,0.413,0.041l1.235,0.474l-0.461-1.288c-0.101-0.282-0.034-0.486,0.283-0.599
				c0.318-0.114,0.498,0.001,0.599,0.283l0.461,1.288l0.654-1.15c0.066-0.123,0.152-0.243,0.293-0.294
				c0.256-0.092,0.52,0.063,0.609,0.31c0.057,0.159-0.023,0.327-0.103,0.465l-0.882,1.54l1.51,0.575
				c0.194,0.07,0.451,0.147,0.527,0.359c0.088,0.247-0.021,0.525-0.277,0.617c-0.185,0.066-0.401-0.036-0.575-0.103l-1.073-0.413
				l0.455,1.271c0.101,0.282,0.034,0.486-0.284,0.599c-0.318,0.114-0.498-0.001-0.599-0.283l-0.455-1.271l-0.568,1
				c-0.091,0.162-0.193,0.378-0.379,0.444c-0.256,0.092-0.517-0.054-0.606-0.301c-0.076-0.212,0.073-0.434,0.18-0.612
				L196.365,210.556z M202.719,208.283l-1.659-0.631c-0.149-0.056-0.317-0.135-0.374-0.294c-0.088-0.247,0.018-0.534,0.274-0.626
				c0.141-0.051,0.284-0.012,0.413,0.041l1.235,0.474l-0.461-1.288c-0.101-0.282-0.034-0.486,0.284-0.599
				c0.318-0.114,0.498,0.001,0.599,0.283l0.461,1.288l0.654-1.15c0.066-0.123,0.152-0.243,0.293-0.294
				c0.256-0.092,0.52,0.063,0.609,0.31c0.057,0.159-0.023,0.327-0.103,0.465l-0.882,1.54l1.51,0.575
				c0.194,0.07,0.451,0.147,0.527,0.359c0.088,0.247-0.021,0.525-0.277,0.617c-0.186,0.066-0.401-0.036-0.575-0.103l-1.073-0.413
				l0.455,1.271c0.101,0.282,0.034,0.486-0.283,0.599c-0.318,0.114-0.498-0.001-0.599-0.283l-0.455-1.271l-0.568,1
				c-0.091,0.162-0.194,0.378-0.379,0.444c-0.256,0.092-0.517-0.054-0.605-0.301c-0.076-0.212,0.074-0.435,0.18-0.612
				L202.719,208.283z M215.427,203.736l-1.659-0.631c-0.149-0.056-0.317-0.135-0.374-0.294c-0.088-0.247,0.018-0.534,0.274-0.626
				c0.141-0.051,0.284-0.012,0.413,0.041l1.235,0.474l-0.461-1.288c-0.101-0.282-0.034-0.486,0.283-0.599
				c0.318-0.114,0.498,0.001,0.599,0.283l0.461,1.288l0.654-1.15c0.066-0.123,0.152-0.243,0.293-0.294
				c0.256-0.092,0.52,0.063,0.609,0.31c0.057,0.159-0.023,0.327-0.103,0.465l-0.882,1.54l1.51,0.575
				c0.194,0.07,0.451,0.147,0.527,0.359c0.088,0.247-0.021,0.525-0.277,0.617c-0.185,0.066-0.401-0.036-0.575-0.103l-1.073-0.413
				l0.455,1.271c0.101,0.282,0.034,0.486-0.284,0.599c-0.318,0.114-0.498-0.001-0.599-0.283l-0.455-1.271l-0.568,1
				c-0.091,0.162-0.193,0.378-0.379,0.444c-0.256,0.092-0.517-0.054-0.606-0.301c-0.076-0.212,0.073-0.434,0.18-0.612
				L215.427,203.736z M221.781,201.463l-1.659-0.631c-0.15-0.056-0.317-0.135-0.374-0.294c-0.088-0.247,0.018-0.534,0.274-0.626
				c0.141-0.051,0.285-0.012,0.413,0.041l1.235,0.474l-0.461-1.288c-0.101-0.282-0.034-0.486,0.284-0.599
				c0.318-0.114,0.498,0.001,0.599,0.283l0.461,1.288l0.654-1.15c0.066-0.123,0.152-0.243,0.293-0.294
				c0.256-0.092,0.52,0.063,0.609,0.31c0.057,0.159-0.023,0.327-0.103,0.465l-0.882,1.54l1.51,0.575
				c0.194,0.07,0.451,0.147,0.527,0.359c0.088,0.247-0.021,0.525-0.277,0.617c-0.186,0.066-0.401-0.036-0.575-0.103l-1.073-0.413
				l0.455,1.271c0.101,0.282,0.034,0.486-0.283,0.599c-0.318,0.114-0.498-0.001-0.599-0.283l-0.455-1.271l-0.568,1
				c-0.091,0.162-0.194,0.378-0.379,0.444c-0.256,0.092-0.517-0.054-0.605-0.301c-0.076-0.212,0.074-0.435,0.18-0.612
				L221.781,201.463z M228.135,199.19l-1.659-0.631c-0.15-0.056-0.317-0.135-0.374-0.294c-0.088-0.247,0.018-0.534,0.274-0.626
				c0.141-0.051,0.284-0.012,0.413,0.041l1.235,0.474l-0.461-1.288c-0.101-0.282-0.034-0.486,0.283-0.599
				c0.318-0.114,0.498,0.001,0.599,0.283l0.461,1.288l0.654-1.15c0.066-0.123,0.152-0.243,0.293-0.294
				c0.256-0.092,0.52,0.063,0.609,0.31c0.057,0.159-0.023,0.327-0.103,0.465l-0.882,1.54l1.51,0.575
				c0.194,0.07,0.451,0.147,0.527,0.359c0.088,0.247-0.021,0.525-0.277,0.617c-0.185,0.066-0.401-0.036-0.575-0.103l-1.073-0.413
				l0.455,1.271c0.101,0.282,0.034,0.486-0.284,0.599c-0.318,0.114-0.498-0.001-0.599-0.283l-0.455-1.271l-0.568,1
				c-0.091,0.162-0.193,0.378-0.379,0.444c-0.256,0.092-0.517-0.054-0.606-0.301c-0.076-0.212,0.073-0.434,0.18-0.612
				L228.135,199.19z M234.489,196.916l-1.659-0.631c-0.15-0.056-0.317-0.135-0.374-0.294c-0.088-0.247,0.018-0.534,0.274-0.626
				c0.141-0.051,0.284-0.012,0.413,0.041l1.235,0.474l-0.461-1.288c-0.101-0.282-0.034-0.486,0.283-0.599
				c0.318-0.114,0.498,0.001,0.599,0.283l0.461,1.288l0.654-1.15c0.066-0.123,0.152-0.243,0.293-0.294
				c0.256-0.092,0.52,0.063,0.609,0.31c0.057,0.159-0.023,0.327-0.103,0.465l-0.882,1.54l1.51,0.575
				c0.194,0.07,0.451,0.147,0.527,0.359c0.088,0.247-0.021,0.525-0.277,0.617c-0.185,0.066-0.401-0.036-0.575-0.103l-1.073-0.413
				l0.455,1.271c0.101,0.282,0.034,0.486-0.284,0.599c-0.318,0.114-0.498-0.001-0.599-0.283l-0.455-1.271l-0.568,1
				c-0.091,0.162-0.193,0.378-0.379,0.444c-0.256,0.092-0.517-0.054-0.606-0.301c-0.076-0.212,0.073-0.434,0.18-0.612
				L234.489,196.916z M247.197,192.37l-1.659-0.631c-0.15-0.056-0.317-0.135-0.374-0.294c-0.088-0.247,0.018-0.534,0.274-0.626
				c0.141-0.05,0.284-0.012,0.413,0.041l1.235,0.474l-0.461-1.288c-0.101-0.282-0.034-0.486,0.283-0.599
				c0.318-0.114,0.498,0.001,0.599,0.283l0.461,1.288l0.654-1.15c0.066-0.123,0.152-0.243,0.293-0.294
				c0.256-0.092,0.52,0.063,0.609,0.31c0.057,0.159-0.023,0.327-0.103,0.465l-0.882,1.54l1.51,0.575
				c0.194,0.07,0.451,0.147,0.527,0.359c0.088,0.247-0.021,0.525-0.277,0.617c-0.185,0.066-0.401-0.036-0.575-0.103l-1.073-0.413
				l0.455,1.271c0.101,0.282,0.034,0.486-0.284,0.599c-0.318,0.114-0.498-0.001-0.599-0.283l-0.455-1.271l-0.568,1
				c-0.091,0.162-0.193,0.378-0.379,0.444c-0.256,0.092-0.517-0.054-0.606-0.301c-0.076-0.212,0.073-0.434,0.18-0.612
				L247.197,192.37z M253.551,190.097l-1.659-0.631c-0.15-0.056-0.317-0.135-0.374-0.294c-0.088-0.247,0.018-0.534,0.274-0.626
				c0.141-0.05,0.284-0.012,0.413,0.041l1.235,0.474l-0.461-1.288c-0.101-0.282-0.034-0.486,0.283-0.599
				c0.318-0.114,0.498,0.001,0.599,0.283l0.461,1.288l0.654-1.15c0.066-0.123,0.152-0.243,0.293-0.294
				c0.256-0.092,0.52,0.063,0.609,0.31c0.057,0.159-0.023,0.327-0.103,0.465l-0.882,1.54l1.51,0.575
				c0.194,0.07,0.451,0.147,0.527,0.359c0.088,0.247-0.021,0.525-0.277,0.617c-0.185,0.066-0.401-0.036-0.575-0.103l-1.073-0.413
				l0.455,1.271c0.101,0.282,0.034,0.486-0.284,0.599c-0.318,0.114-0.498-0.001-0.599-0.283l-0.455-1.271l-0.568,1
				c-0.091,0.162-0.193,0.378-0.379,0.444c-0.256,0.092-0.517-0.054-0.606-0.301c-0.076-0.212,0.073-0.434,0.18-0.612
				L253.551,190.097z M259.905,187.823l-1.659-0.631c-0.149-0.056-0.317-0.135-0.374-0.294c-0.088-0.247,0.018-0.534,0.274-0.626
				c0.141-0.051,0.284-0.012,0.413,0.041l1.235,0.474l-0.461-1.288c-0.101-0.282-0.034-0.486,0.284-0.599
				c0.318-0.114,0.498,0.001,0.599,0.283l0.461,1.288l0.654-1.15c0.066-0.123,0.152-0.243,0.293-0.294
				c0.256-0.092,0.52,0.063,0.609,0.31c0.057,0.159-0.023,0.327-0.103,0.465l-0.883,1.54l1.51,0.575
				c0.195,0.07,0.451,0.147,0.527,0.359c0.088,0.247-0.021,0.525-0.277,0.617c-0.186,0.066-0.401-0.036-0.575-0.103l-1.073-0.413
				l0.455,1.271c0.101,0.282,0.034,0.486-0.283,0.599c-0.318,0.114-0.498-0.001-0.599-0.283l-0.455-1.271l-0.568,1
				c-0.091,0.162-0.194,0.378-0.379,0.444c-0.256,0.092-0.517-0.054-0.605-0.301c-0.076-0.212,0.074-0.435,0.18-0.612
				L259.905,187.823z M266.259,185.55l-1.659-0.631c-0.149-0.056-0.317-0.135-0.374-0.294c-0.088-0.247,0.018-0.534,0.274-0.626
				c0.141-0.051,0.285-0.012,0.413,0.041l1.235,0.474l-0.461-1.288c-0.101-0.282-0.034-0.486,0.284-0.599
				c0.318-0.114,0.498,0.001,0.599,0.283l0.461,1.288l0.654-1.15c0.066-0.123,0.152-0.243,0.293-0.294
				c0.256-0.092,0.52,0.063,0.609,0.31c0.057,0.159-0.023,0.327-0.103,0.465l-0.882,1.54l1.51,0.575
				c0.194,0.07,0.451,0.147,0.527,0.359c0.088,0.247-0.021,0.525-0.277,0.617c-0.186,0.066-0.401-0.036-0.575-0.103l-1.073-0.413
				l0.455,1.271c0.101,0.282,0.034,0.486-0.283,0.599c-0.318,0.114-0.498-0.001-0.599-0.283l-0.455-1.271l-0.568,1
				c-0.091,0.162-0.194,0.378-0.379,0.444c-0.256,0.092-0.517-0.054-0.605-0.301c-0.076-0.212,0.074-0.435,0.18-0.612
				L266.259,185.55z"/>
			<g>
				<path style="fill:#F89D13;" d="M171.98,207.055l-15.058,5.387c-1.773,0.634-3.724-0.289-4.359-2.062l-3.358-9.387
					c-0.634-1.773,0.289-3.724,2.062-4.359l15.058-5.387c1.773-0.634,3.724,0.289,4.359,2.062l3.358,9.387
					C174.676,204.469,173.753,206.42,171.98,207.055z"/>
			</g>
			<path style="fill:#D8E2E5;" d="M229.233,218.438l-71.602,25.617c-0.565,0.202-1.188-0.092-1.39-0.657l0,0
				c-0.202-0.565,0.092-1.188,0.657-1.39l71.602-25.617c0.565-0.202,1.188,0.092,1.39,0.657l0,0
				C230.092,217.613,229.798,218.236,229.233,218.438z M202.307,236.442L202.307,236.442c-0.202-0.565-0.825-0.86-1.39-0.657
				l-40.997,14.668c-0.565,0.202-0.86,0.825-0.657,1.39l0,0c0.202,0.565,0.825,0.86,1.39,0.657l40.997-14.668
				C202.214,237.63,202.509,237.007,202.307,236.442z"/>
			
				<ellipse transform="matrix(0.9416 -0.3369 0.3369 0.9416 -56.7284 99.1115)" style="fill:#D8E2E5;" cx="257.26" cy="213.038" rx="8.837" ry="8.837"/>
			
				<ellipse transform="matrix(0.9416 -0.3369 0.3369 0.9416 -54.8399 102.4455)" style="fill:#F89D13;" cx="267.812" cy="209.263" rx="8.837" ry="8.837"/>
			<path style="fill:#F89D13;" d="M251.247,154.815l-13.074,4.678c-2.2,0.787-4.621-0.358-5.408-2.558l-1.256-3.51
				c-0.787-2.2,0.358-4.621,2.558-5.408l13.074-4.678c2.2-0.787,4.621,0.358,5.408,2.558l1.256,3.51
				C254.592,151.607,253.447,154.028,251.247,154.815z"/>
		</g>
		<path style="fill:#184785;" d="M227.129,114.18v2.81h-6.31v-3.54C222.928,113.7,225.028,113.94,227.129,114.18z"/>
		<path style="fill:#78A6D1;" d="M225.538,142.97c0,0.72-0.48,1.32-1.14,1.5c-0.14,0.01-0.28,0.01-0.42,0.01
			c-0.15,0-0.29,0-0.43-0.01c-2.82-0.1-5.38-1.22-7.32-3.01c-2.29-2.1-3.73-5.11-3.73-8.46c0-5.82,4.35-10.64,9.97-11.38v-4.63h3.02
			v6.04c0,0.83-0.68,1.51-1.51,1.51c-4.67,0-8.46,3.79-8.46,8.46c0,3.07,1.64,5.77,4.1,7.24c1.18,0.72,2.55,1.15,4.01,1.21
			c0.11,0.01,0.23,0.01,0.35,0.01c0.11,0,0.23,0,0.35-0.01C225.018,141.61,225.538,142.23,225.538,142.97z"/>
	</g>
	<g>
		<g>
			<path style="fill:#1F254D;" d="M343.842,217.279c0,0-9.421,6.221-3.365,15.146l1.493,0.191l6.472-4.42l3.012-8.686
				C351.454,219.511,348.731,216.397,343.842,217.279z"/>
			<g>
				<path style="fill:#DB847D;" d="M348.406,219.393c-2.046,1.032-6.776,3.2-9.018,3.554l0.377,1.354c0,0-2.957,3.535,1.617,5.804
					l0.066,2.483l-1.875,4.271l6.587,0.671l1.997-0.556C347.753,232.42,350.318,226.138,348.406,219.393z"/>
				<path style="fill:#E6E7E8;" d="M343.142,221.828c0.853-0.382,0.828,1.116,1.2,1.87
					C344.342,223.698,342.51,222.222,343.142,221.828z"/>
			</g>
			<g>
				<path style="fill:#F6B2B5;" d="M361.956,351.163c-0.434-2.618-2.343-9.035-2.343-9.035l-6.838,1.561l2.955,9.613l5.3,1.893
					L361.956,351.163z"/>
				<path style="fill:#0F3C6D;" d="M360.718,349.06c0.19-0.731,1.935-0.893,2.585,0.046c1.489,2.149,10.375,0.425,11.758,0.141
					c0.714-0.147,3.132,2.924-0.215,4.19c-2.894,1.095-12.152,4.635-15.327,5.812c-0.664,0.246-1.413,0.019-1.819-0.562
					c-1.446-2.072-2.908-6.272-2.054-6.685C356.941,351.823,359.864,352.346,360.718,349.06z"/>
			</g>
			<g>
				<path style="fill:#F6B2B5;" d="M245.779,293.599c2.344,1.243,8.605,3.618,8.605,3.618l2.907-6.383l-9.435-3.482l-4.72,3.065
					L245.779,293.599z"/>
				<path style="fill:#0F3C6D;" d="M248.202,293.891c0.466,0.595-0.464,2.08-1.605,2.027c-2.611-0.12-6.632,7.99-7.245,9.262
					c-0.316,0.657-4.224,0.716-3.2-2.713c0.886-2.965,3.687-12.472,4.677-15.71c0.207-0.677,0.843-1.135,1.55-1.105
					c2.525,0.107,6.75,1.493,6.561,2.423C248.297,289.213,246.108,291.219,248.202,293.891z"/>
			</g>
			<path style="fill:#0F3C6D;" d="M252.323,296.102c0.033,0.26,0.07,0.527,0.108,0.804c0,0,36.659,17.511,47.728,11.281
				c11.214-6.313,12.821-13.233,16.099-24.864c0.546-1.937,1.137-4.005,1.829-6.224l0.002,0.002
				c0.005,0.002,0.013,0.007,0.022,0.018c0.013,0.009,0.031,0.02,0.051,0.038c0.518,0.377,3.538,2.651,7.014,5.991
				c0.357,0.34,0.718,0.694,1.08,1.056c0.181,0.183,0.364,0.366,0.547,0.555l0.005,0.005c4.001,4.086,8.173,9.346,9.647,14.626
				c3.07,11.005,12.391,43.011,15.565,48.752c0,0,0.718-0.157,2.028-0.622c1.453-0.514,3.637-1.395,6.385-2.85
				c0.891-0.469,1.841-1.001,2.848-1.598c0,0-13.76-38.437-15.012-47.093c-0.525-3.641-2.854-8.254-5.62-13.161
				c-2.824-5.014-6.105-10.335-8.387-15.244c-1.474-3.17-2.532-6.169-2.784-8.803c0,0-2.698-1.62-6.368-3.062
				c-2.175-0.855-4.688-1.647-7.187-2.006c-3.029-0.437-6.035-0.234-8.38,1.27c-0.181,0.117-0.531,0.304-0.987,0.536
				c-0.571,0.293-1.309,0.659-2.081,1.053c-1.949,0.998-4.119,2.171-4.402,2.786c-0.231,0.503-0.441,1.131-0.633,1.86v0.002
				c-0.807,3.031-1.342,7.765-2.096,12.169c-0.055,0.32-0.108,0.639-0.154,0.954c-1.743,11.34,0.578,19.239-4.717,22.574
				c-4.036,2.537-40.43-8.938-41.397-8.792c-0.26,0.037-0.492,0.225-0.675,0.602C251.931,289.69,251.779,291.92,252.323,296.102z"/>
			<path style="fill:#0F3C6D;" d="M340.688,244.305c-0.148,8.154-4.265,13.814-2.147,28.879c-0.351-0.715-0.754-1.731-1.074-2.284
				c-2.171-3.747-2.073-22.251-1.34-23.718c0.656-1.314,1.478-1.8,4.612-3.03C340.718,244.198,340.701,244.25,340.688,244.305z"/>
			<path style="fill:#93BBE5;" d="M344.233,219.513c-2.008,1.1-3.181,2.167-2.892,2.925c0.219,0.573,3.804,2.453,4.622,2.435
				c1.435-0.031,2.013,1.205,2.297,1.844c0.272,0.614,2.825,3.849,3.063,3.606c0.54-0.552-0.368-1.913-0.732-2.867
				c-0.363-0.954-2.78-4.881-4.086-6.025C345.2,220.285,344.733,219.239,344.233,219.513z"/>
			<path style="fill:#0F3C6D;" d="M351.078,229.469c3,0.041,3.171-0.37,2.474,0.488s-2.193,0.382-2.446-0.091
				C350.854,229.393,351.078,229.469,351.078,229.469z"/>
			<path style="fill:#0F3C6D;" d="M351.376,229.821c0.857,1.298,0.458,0.864,0.104,2.076c-0.354,1.212-0.845-0.218-0.669-0.977
				S350.88,229.069,351.376,229.821z"/>
			<path style="fill:#0F3C6D;" d="M341.24,243.809l0.659,1.229c-0.11,1.024-0.254,2.048-0.442,3.071
				C341.312,246.573,341.235,245.13,341.24,243.809z"/>
			<path style="fill:#0F3C6D;" d="M343.842,217.279l0.084,13.12l-12.663,2.08l12.408,1.096l2.683,14.029l3.581-12.977
				c0,0,10.39-2.463,8.814-10.872C357.174,215.346,343.842,217.279,343.842,217.279z"/>
			<g>
				<path style="fill:#0A2E4F;" d="M291.135,258.47c1.656,0.294,3.263-1.737,4.654-3.477c0.225-0.282,0.457-0.571,0.694-0.867
					l-3.278-3.276c-0.693,0.996-1.178,1.138-1.483,1.103c-1.174-0.135-1.437-3.119-2.559-3.168
					c-0.424-0.019-0.759,0.387-0.898,0.562C286.606,251.408,288.415,257.986,291.135,258.47z"/>
				<path style="fill:#0A2E4F;" d="M372.559,240.447v-5.653c-0.132-0.952-0.476-2.538-1.508-4.189
					c-0.851-1.362-1.721-2.756-3.217-2.949c-1.333-0.172-2.482,0.698-3.566,1.517c-0.492,0.372-0.729,0.644-0.858,0.996
					c-0.235,0.638,0.081,0.999,0.268,2.111c0.256,1.518-0.199,1.774,0.201,2.782c0.078,0.196,0.224,0.518,1.039,1.542
					c0.466,0.585,1.134,1.378,2.011,2.279c-0.06,0.285-0.12,0.57-0.18,0.855c0.366,1.164,1.344,2.028,2.526,2.228
					C370.557,242.183,371.864,241.581,372.559,240.447z"/>
				<path style="fill:#0A2E4F;" d="M367.23,230.068c-0.675,0.487-1.267,1.087-1.798,1.733c-0.265,0.324-0.516,0.665-0.726,1.035
					c-0.208,0.37-0.39,0.769-0.458,1.217c-0.031,0.224-0.025,0.461,0.037,0.692c0.018,0.057,0.036,0.114,0.059,0.171
					c0.023,0.055,0.048,0.106,0.076,0.157c0.055,0.102,0.12,0.203,0.213,0.299c0.048,0.047,0.101,0.095,0.176,0.132
					c0.07,0.039,0.166,0.064,0.261,0.056c0.095-0.007,0.181-0.042,0.244-0.084c0.065-0.042,0.117-0.089,0.161-0.137
					c0.088-0.096,0.151-0.195,0.209-0.292c0.058-0.1,0.098-0.173,0.153-0.255c0.212-0.317,0.496-0.594,0.808-0.837
					c0.312-0.245,0.658-0.453,1.011-0.647l-0.341-0.364c-0.366,0.567-0.734,1.134-1.116,1.685c-0.096,0.137-0.192,0.273-0.291,0.407
					c-0.09,0.123-0.228,0.285-0.301,0.501c-0.038,0.107-0.058,0.233-0.047,0.361c0.011,0.128,0.059,0.253,0.123,0.355
					c0.134,0.204,0.313,0.325,0.488,0.415c0.087,0.045,0.187,0.036,0.263-0.014l1.62-1.064l1.613-1.075l-0.273-0.369
					c-0.255,0.217-0.5,0.445-0.741,0.679c-0.24,0.234-0.475,0.475-0.697,0.732c-0.221,0.258-0.435,0.524-0.594,0.85
					c-0.04,0.082-0.074,0.169-0.097,0.266c-0.024,0.095-0.035,0.208-0.001,0.326c0.032,0.105,0.076,0.185,0.139,0.269
					c0.031,0.04,0.067,0.079,0.108,0.113c0.021,0.017,0.042,0.033,0.066,0.048c0.012,0.008,0.024,0.015,0.037,0.021l0.021,0.01
					l0.012,0.005l0.007,0.003c-0.001,0,0.007,0.003-0.001,0c-0.007-0.003-0.014-0.007-0.021-0.011l0.086,0.023
					c0.301-0.029,0.6-0.08,0.888-0.164c0.289-0.083,0.569-0.191,0.837-0.323c0.535-0.264,1.016-0.621,1.439-1.028
					c-0.465,0.359-0.968,0.665-1.506,0.879c-0.268,0.108-0.544,0.194-0.824,0.253c-0.28,0.061-0.566,0.087-0.85,0.101l0.086,0.023
					l-0.032-0.017l-0.007-0.004l-0.016-0.011c-0.011-0.008-0.022-0.017-0.033-0.027c-0.022-0.02-0.041-0.044-0.059-0.07
					c-0.034-0.049-0.066-0.121-0.078-0.174c-0.021-0.085,0.028-0.231,0.1-0.358c0.147-0.262,0.361-0.509,0.579-0.745
					c0.443-0.471,0.941-0.901,1.446-1.316c0.098-0.08,0.112-0.225,0.032-0.323c-0.074-0.091-0.204-0.11-0.3-0.048l-0.004,0.003
					l-1.638,1.036l-1.631,1.047l0.263-0.014c-0.124-0.063-0.229-0.148-0.28-0.23c-0.049-0.082-0.055-0.152-0.02-0.258
					c0.036-0.107,0.118-0.212,0.227-0.36c0.102-0.14,0.2-0.28,0.296-0.421c0.386-0.565,0.75-1.137,1.113-1.709l0.002-0.003
					c0.076-0.12,0.04-0.278-0.079-0.354c-0.083-0.052-0.184-0.051-0.263-0.007c-0.371,0.21-0.732,0.442-1.067,0.717
					c-0.335,0.274-0.647,0.59-0.888,0.969c-0.059,0.092-0.117,0.201-0.159,0.283c-0.045,0.084-0.093,0.161-0.143,0.22
					c-0.05,0.06-0.102,0.091-0.116,0.09c-0.01,0.007-0.057-0.007-0.112-0.059c-0.107-0.103-0.215-0.286-0.265-0.443
					c-0.052-0.168-0.065-0.353-0.049-0.541c0.035-0.378,0.178-0.76,0.357-1.12c0.182-0.361,0.4-0.709,0.637-1.044
					c0.239-0.333,0.494-0.661,0.761-0.975C366.634,230.645,366.921,230.346,367.23,230.068z"/>
				<path style="fill:#0F3C6D;" d="M368.47,241.362c-1.113-0.551-1.515-1.658-1.609-1.944l-4.759,13.473
					c-1.145-2.348-2.603-5.276-4.357-8.647c-1.418-2.727-2.389-4.499-4.29-6.301c-1.245-1.18-2.463-1.955-3.338-2.439
					c-6.186-2.866-12.372-5.732-18.558-8.598c-1.392-0.343-3.253-0.655-5.452-0.626c-0.801,0.011-2.268,0.114-4.013,0.253
					c-0.508,5.682-2.437,10.874-4.949,15.807c0.527,0.146,1.023,0.269,1.455,0.361c-0.479,0.848-1.33,2.438-2.145,4.53
					c-2.88,7.395-1.497,11.28-4.915,16.762c-1.204,1.93-2.447,3.167-3.396,4.111c-3.622,3.603-7.483,5.426-9.92,6.345
					c0.965,0.876,2.749,2.326,5.295,3.374c6.721,2.766,11.745-0.151,21.918,0.603c2.463,0.183,5.23,0.58,8.244,1.341
					c2.861-2.727,6.227-6.444,9.379-11.286c2.401-3.687,4.132-7.189,5.389-10.208c2.454,1.476,4.907,2.951,7.361,4.427
					c0.179,0.126,0.337,0.253,0.526,0.377c1.419,0.935,2.86,1.881,4.248,2.494c0.007,0.004,0.014,0.008,0.021,0.012
					c-0.002-0.002-0.004-0.004-0.006-0.007c1.333,0.586,2.616,0.866,3.781,0.517c1.436-0.431,3.039-1.912,5.898-14.277
					c1.082-4.678,1.81-8.604,2.279-11.372C371.403,241.639,369.735,241.989,368.47,241.362z"/>
				<g>
					<g>
						<path style="fill:#F89D13;" d="M343.635,264.68l-17.083,40.438c-0.964,2.281-3.583,3.363-5.875,2.428l-61.61-25.138
							c-2.305-0.941-3.417-3.568-2.487-5.878l16.549-41.098c0.94-2.335,3.605-3.453,5.93-2.488l62.144,25.799
							C343.52,259.704,344.612,262.368,343.635,264.68z"/>
					</g>
					<g>
						<g>
							
								<rect x="291.189" y="255.968" transform="matrix(0.3745 -0.9272 0.9272 0.3745 -77.1263 449.3821)" style="fill:#D8E2E5;" width="6.627" height="51.773"/>
						</g>
					</g>
					<g>
						<g>
							<path style="fill:#D8E2E5;" d="M305.925,256.139c0.386,0.139,0.816-0.05,0.971-0.434c0.158-0.392-0.031-0.84-0.424-0.999
								l-28.999-11.711c-0.4-0.148-0.839,0.031-0.999,0.424c-0.158,0.392,0.031,0.84,0.424,0.999l28.999,11.711
								C305.907,256.133,305.916,256.136,305.925,256.139z"/>
						</g>
					</g>
					<g>
						<g>
							<path style="fill:#D8E2E5;" d="M302.588,265.096c0.386,0.139,0.816-0.05,0.971-0.434c0.158-0.392-0.031-0.84-0.424-0.999
								l-28.999-11.711c-0.389-0.15-0.839,0.031-0.999,0.424c-0.158,0.392,0.031,0.84,0.424,0.999l28.999,11.711
								C302.57,265.089,302.579,265.092,302.588,265.096z"/>
						</g>
					</g>
					<g>
						<g>
							
								<rect x="311.06" y="261.829" transform="matrix(0.3745 -0.9272 0.9272 0.3745 -50.9637 468.4325)" style="fill:#D8E2E5;" width="21.285" height="20.319"/>
						</g>
					</g>
					<g>
						<path style="fill:#F89D13;" d="M313.944,274.622c1.575-3.901,8.15-4.189,8.15-4.189s4.531,4.773,2.955,8.674
							c-0.701,1.736-1.407,3.484-1.983,4.91l-11.106-4.485C312.537,278.105,313.243,276.358,313.944,274.622z"/>
					</g>
					<g>
						<path style="fill:#184785;" d="M313.944,274.622c1.575-3.901,8.15-4.189,8.15-4.189s4.531,4.773,2.955,8.674
							c-0.701,1.736-1.407,3.484-1.983,4.91l-11.106-4.485C312.537,278.105,313.243,276.358,313.944,274.622z"/>
					</g>
					<g>
						<path style="fill:#184785;" d="M318.841,267.709c0.835-2.067,3.187-3.066,5.254-2.231c2.067,0.835,3.066,3.187,2.231,5.254
							c-0.835,2.067-3.187,3.066-5.254,2.232C319.005,272.128,318.006,269.776,318.841,267.709z"/>
					</g>
				</g>
				<path style="fill:#0F3C6D;" d="M310.957,227.384c-0.194,0-0.396,0.012-0.596,0.02c-0.126,0.003-0.263,0.008-0.374,0.008
					c0.006,0.002,0.011,0.006,0.017,0.008c-1.267,0.084-2.628,0.346-4.001,0.934c-4.437,1.901-6.44,6.053-8.985,11.266
					c-1.247,2.552-2.802,6.334-3.813,11.228c-0.693,0.996-1.178,1.138-1.483,1.103c-1.174-0.135-1.437-3.119-2.559-3.168
					c-0.424-0.019-0.759,0.387-0.898,0.562c-1.66,2.062,0.149,8.64,2.869,9.124c1.656,0.294,3.263-1.737,4.654-3.477
					c0.225-0.282,0.457-0.571,0.694-0.867c3.065-3.811,7.181-8.833,12.8-15.454c2.998,2.035,5.769,3.09,7.863,3.67
					c2.513-4.933,4.441-10.125,4.949-15.807C318.465,226.823,313.616,227.271,310.957,227.384z"/>
			</g>
		</g>
	</g>
	<g>
		<path style="fill:#F89D13;" d="M384.073,139.457h-67.82c-4.704,0-8.518,3.814-8.518,8.518v49.456c0,4.704,3.814,8.518,8.518,8.518
			h65.021l28.816,7.934l-17.499-16.452v-49.456C392.591,143.271,388.777,139.457,384.073,139.457z"/>
		<g>
			<path style="fill:#FFFFFF;" d="M348.589,144.677c-7.52,0-14.865,3.321-14.865,13.616c0,4.329,2.436,8.183,5.936,10.677v2.277
				c0,1.779,1.226,3.268,2.877,3.679v-1.029c0-0.438,0.355-0.793,0.793-0.793c0.438,0,0.793,0.355,0.793,0.793v1.145h1.85v-1.145
				c0-0.438,0.355-0.793,0.793-0.793c0.438,0,0.793,0.355,0.793,0.793v1.145h1.85v-1.145c0-0.438,0.355-0.793,0.793-0.793
				c0.438,0,0.793,0.355,0.793,0.793v1.145h1.85v-1.145c0-0.438,0.355-0.793,0.793-0.793c0.438,0,0.793,0.355,0.793,0.793v1.029
				c1.652-0.411,2.877-1.9,2.877-3.679v-2.185c3.51-2.491,5.936-6.386,5.936-10.768
				C363.246,147.999,356.109,144.677,348.589,144.677z M345.157,163.47c-2.303,1.846-5.403,1.806-6.922-0.09
				c-1.52-1.896-0.884-4.93,1.419-6.776c2.303-1.846,5.403-1.806,6.922,0.09C348.096,158.59,347.461,161.624,345.157,163.47z
				 M347.078,167.779l1.407-2.437l1.407,2.437H347.078z M358.736,163.38c-1.52,1.896-4.619,1.936-6.922,0.09
				c-2.303-1.846-2.939-4.88-1.419-6.776c1.52-1.896,4.619-1.936,6.922-0.09C359.62,158.45,360.255,161.484,358.736,163.38z"/>
			<g>
				<g>
					<g>
						<path style="fill:#FFFFFF;" d="M368.807,188.147l-36.015-15.551c0.763-1.767-0.051-3.818-1.818-4.581
							c-1.767-0.763-3.818,0.051-4.581,1.818c-0.56,1.297-0.268,2.745,0.625,3.727c-1.326,0.023-2.581,0.804-3.141,2.101
							c-0.763,1.767,0.051,3.818,1.818,4.581c1.767,0.763,3.818-0.051,4.581-1.818l36.015,15.551
							c-0.763,1.767,0.051,3.818,1.818,4.581c1.767,0.763,3.818-0.051,4.581-1.818c0.56-1.297,0.268-2.745-0.625-3.727
							c1.326-0.023,2.581-0.804,3.141-2.101c0.763-1.767-0.051-3.818-1.818-4.581C371.621,185.566,369.57,186.38,368.807,188.147z"
							/>
					</g>
				</g>
				<g>
					<g>
						<path style="fill:#FFFFFF;" d="M328.163,188.147l36.015-15.551c-0.763-1.767,0.051-3.818,1.818-4.581
							c1.767-0.763,3.818,0.051,4.581,1.818c0.56,1.297,0.268,2.745-0.625,3.727c1.326,0.023,2.581,0.804,3.141,2.101
							c0.763,1.767-0.051,3.818-1.818,4.581c-1.767,0.763-3.818-0.051-4.581-1.818l-36.015,15.551
							c0.763,1.767-0.051,3.818-1.818,4.581c-1.767,0.763-3.818-0.051-4.581-1.818c-0.56-1.297-0.268-2.745,0.625-3.727
							c-1.326-0.023-2.581-0.804-3.141-2.101c-0.763-1.767,0.051-3.818,1.818-4.581C325.349,185.566,327.4,186.38,328.163,188.147z"
							/>
					</g>
				</g>
			</g>
		</g>
	</g>
</g>
<g id="TEXTS">
	
		<text transform="matrix(0.9416 -0.3369 0.3369 0.9416 137.4127 192.6632)" style="fill:#D8E2E5; font-family:'Montserrat-Bold'; font-size:12.8455px;">BANK CARD</text>
	<text transform="matrix(1 0 0 1 161.219 290.5746)" style="fill:#5B5A5A; font-family:'Montserrat-Bold'; font-size:8.3246px;">Username</text>
	<text transform="matrix(1 0 0 1 169.1384 331.2191)" style="fill:#EEF5FF; font-family:'Montserrat-Bold'; font-size:8.3246px;">Login</text>
</g>
</svg>
